<?xml version="1.0" standalone="no"?>
<!DOCTYPE svg PUBLIC "-//W3C//DTD SVG 20010904//EN"
 "http://www.w3.org/TR/2001/REC-SVG-20010904/DTD/svg10.dtd">
<svg version="1.0" xmlns="http://www.w3.org/2000/svg"
 width="384.000000pt" height="384.000000pt" viewBox="0 0 384.000000 384.000000"
 preserveAspectRatio="xMidYMid meet">
<metadata>
Created by potrace 1.14, written by Peter Selinger 2001-2017
</metadata>
<g transform="translate(0.000000,384.000000) scale(0.100000,-0.100000)"
fill="#000000" stroke="none">
<path d="M1766 3827 c-515 -39 -1028 -312 -1336 -707 -19 -25 -37 -47 -41 -50
-29 -22 -193 -311 -236 -415 -47 -115 -94 -290 -128 -475 -4 -19 -8 -116 -10
-215 -3 -160 0 -211 20 -343 23 -153 79 -337 147 -484 247 -539 726 -933 1297
-1067 52 -12 108 -24 125 -27 17 -2 58 -8 91 -13 64 -10 427 -7 485 4 255 47
390 90 575 180 656 320 1068 977 1069 1705 0 100 -10 258 -19 290 -2 8 -6 33
-10 55 -3 22 -15 76 -26 120 -25 99 -25 97 -31 115 -3 8 -16 44 -29 80 -66
188 -175 380 -308 545 -71 88 -205 224 -266 270 -22 16 -49 38 -60 48 -11 10
-56 42 -100 71 -363 239 -780 347 -1209 313z"/>
</g>
</svg>
